<svg width="90" height="112" viewBox="0 0 90 112" fill="none" xmlns="http://www.w3.org/2000/svg">
<path id="&#197;&#189;e donacija v vi&#197;&#161;ini" d="M45 112C24.1304 112 8.6413 104.685 0 94.9318L14.1848 75.9129C22.1739 83.553 34.4022 87.2917 43.8587 87.2917C55.9239 87.2917 62.1196 82.7402 62.1196 76.7257C62.1196 70.5486 57.5543 67.4601 42.7174 67.4601C37.9891 67.4601 29.6739 67.6226 28.0435 67.7852V42.9144C30.163 43.0769 38.6413 43.0769 42.7174 43.0769C53.9674 43.0769 60.3261 40.3135 60.3261 34.6241C60.3261 27.7968 52.5 24.7083 42.0652 24.7083C32.1196 24.7083 22.663 28.2845 15 35.1118L1.46739 17.5559C10.7609 7.31495 24.9457 0 45 0C72.7174 0 88.2065 11.8665 88.2065 29.7475C88.2065 42.4267 77.2826 52.0174 64.4022 54.1306C75.9783 55.2685 90 64.209 90 79.8142C90 98.8331 72.0652 112 45 112Z" fill="#FDB300"/>
</svg>
